<svg width="60" height="60" viewBox="0 0 60 60" xmlns="http://www.w3.org/2000/svg">
  <!-- Background circle -->
  <circle cx="30" cy="30" r="28" fill="#16a34a" opacity="0.1"/>
  
  <!-- Main leaf -->
  <path d="M20 15 Q30 8 40 15 Q45 22 40 28 Q30 35 20 28 Q15 22 20 15 Z" fill="#16a34a"/>
  
  <!-- Secondary leaf -->
  <path d="M25 12 Q32 6 38 12 Q41 16 38 20 Q32 26 25 20 Q22 16 25 12 Z" fill="#15803d"/>
  
  <!-- Circuit lines -->
  <path d="M42 18 L50 18 M50 18 L50 22 M50 22 L46 22 M46 22 L46 26 M46 26 L52 26" stroke="#16a34a" stroke-width="2" fill="none"/>
  <path d="M42 30 L52 30" stroke="#16a34a" stroke-width="2" fill="none"/>
  
  <!-- Data points -->
  <circle cx="44" cy="16" r="1.5" fill="#16a34a"/>
  <circle cx="48" cy="20" r="1.5" fill="#16a34a"/>
  <circle cx="52" cy="26" r="1.5" fill="#16a34a"/>
  <circle cx="48" cy="30" r="1.5" fill="#16a34a"/>
</svg> 